<?xml version="1.0" encoding="UTF-8" standalone="no"?>
<!-- Created with Inkscape (http://www.inkscape.org/) -->

<svg
   width="31.546486mm"
   height="36.645527mm"
   viewBox="0 0 31.546486 36.645527"
   version="1.1"
   id="svg5"
   xml:space="preserve"
   inkscape:version="1.2.2 (732a01da63, 2022-12-09)"
   sodipodi:docname="print-forge-logo.svg"
   xmlns:inkscape="http://www.inkscape.org/namespaces/inkscape"
   xmlns:sodipodi="http://sodipodi.sourceforge.net/DTD/sodipodi-0.dtd"
   xmlns="http://www.w3.org/2000/svg"
   xmlns:svg="http://www.w3.org/2000/svg"><sodipodi:namedview
     id="namedview7"
     pagecolor="#ffffff"
     bordercolor="#000000"
     borderopacity="0.25"
     inkscape:showpageshadow="2"
     inkscape:pageopacity="0.0"
     inkscape:pagecheckerboard="0"
     inkscape:deskcolor="#d1d1d1"
     inkscape:document-units="mm"
     showgrid="false"
     inkscape:zoom="2.8284272"
     inkscape:cx="438.22942"
     inkscape:cy="139.65359"
     inkscape:window-width="2560"
     inkscape:window-height="1369"
     inkscape:window-x="1592"
     inkscape:window-y="-8"
     inkscape:window-maximized="1"
     inkscape:current-layer="layer1" /><defs
     id="defs2"><inkscape:path-effect
       effect="perspective-envelope"
       up_left_point="56.742689,120.52623"
       up_right_point="109.47749,146.7932"
       down_left_point="55.194444,231.24185"
       down_right_point="104.12647,252.34072"
       id="path-effect4571"
       is_visible="true"
       lpeversion="1"
       deform_type="perspective"
       horizontal_mirror="false"
       vertical_mirror="false"
       overflow_perspective="false" /></defs><g
     inkscape:label="Layer 1"
     inkscape:groupmode="layer"
     id="layer1"
     transform="translate(-89.404581,-36.425998)"><g
       id="g13639"
       transform="matrix(0.19846939,0,0,0.19846939,80.375027,26.037817)"
       inkscape:export-filename="..\..\..\Docker\Projects\print-forge\public\logomark.svg"
       inkscape:export-xdpi="96"
       inkscape:export-ydpi="96"><path
         id="path302"
         style="fill:#414a54;fill-opacity:1;stroke:none;stroke-width:0.264583;stroke-opacity:1"
         d="m 123.86523,52.363281 c -3.36378,0.10992 -6.61461,1.228993 -9.51712,2.893092 -14.0435,7.515322 -27.991916,15.211209 -41.989648,22.811854 -6.264515,3.444092 -12.565648,6.824076 -18.764712,10.384898 -3.735931,2.433245 -6.316085,6.352206 -7.564841,10.590343 -0.322535,0.851473 -0.627469,1.706202 -0.505472,2.631142 0.01641,22.20412 -0.03918,44.40847 0.04873,66.61244 0.139999,5.87592 1.866005,13.08956 5.800336,15.42085 0.381226,-6.03139 2.259279,-12.8193 6.716634,-15.33669 -0.234356,-11.52052 -0.449771,-18.25374 -0.481581,-29.7759 0.01658,-11.01034 0.01476,-22.02103 0.13463,-33.03086 11.71574,5.74753 23.30589,11.74718 34.957379,17.62335 8.531235,4.36922 17.140645,8.58891 25.592575,13.11096 0.76952,0.13184 0.52745,0.90597 0.58497,1.47676 0.12023,7.15915 0.007,8.37848 0.0393,15.53848 3.05138,-6.43827 6.86239,-8.76508 12.37756,-13.04339 -0.18967,-5.01519 0.14942,-10.33624 -4.95913,-13.35073 -5.12219,-2.91879 -10.43539,-5.48964 -15.67342,-8.18977 C 95.510913,111.05512 80.327252,103.44588 65.197266,95.730469 83.300722,85.916276 101.3373,75.975655 119.44936,66.176137 c 1.72095,-0.810154 3.41292,-1.980506 5.37173,-2.037948 2.2632,0.02769 4.18439,1.37871 6.15551,2.322014 9.49729,5.00626 18.79471,10.385297 28.33907,15.301985 5.2271,2.66281 12.30055,3.973496 17.58554,6.516167 4.17555,1.609013 6.5172,4.590338 10.49332,6.653286 -5.45313,2.826558 -10.97681,5.527659 -16.30971,8.578289 -2.11646,1.07286 -3.18912,3.6525 -2.60826,5.92757 0.58487,2.75733 3.29503,4.85497 6.11914,4.65625 2.47894,-0.0726 4.47439,-1.7187 6.62358,-2.7455 3.65664,-1.95153 7.35043,-3.83395 11.0776,-5.64708 0.18345,19.89732 0.17488,39.79621 0.0978,59.6941 -0.0423,3.25039 0.007,6.50824 -0.14974,9.75336 -0.62184,2.38947 -1.94253,4.77574 -4.18871,5.9758 -6.2662,3.63266 -12.7042,6.95979 -19.05829,10.43507 -4.90534,2.65059 -5.86006,3.18394 -10.75763,5.84882 0.01,5.60259 -1.10913,10.41506 -2.38348,15.35806 13.57304,-7.41341 23.00505,-12.74493 36.55892,-20.19311 3.99013,-2.19703 7.67187,-5.26554 9.71185,-9.41758 1.01741,-1.95433 1.83972,-4.04899 1.94812,-6.2743 0.40878,-5.55387 0.29502,-11.13068 0.35045,-16.69584 0.005,-18.48123 0.0943,-36.9639 -0.16752,-55.44385 -0.12645,-2.78904 0.0977,-5.637958 -0.60439,-8.3667 -2.87739,-4.459521 -7.95843,-7.83023 -11.77059,-10.515056 -5.88122,-3.742799 -13.04132,-7.048969 -19.13059,-10.430596 -12.1934,-6.611979 -24.35113,-13.253238 -36.5391,-19.863744 -3.16087,-1.686922 -6.56854,-3.179268 -10.21549,-3.204748 -0.71075,-0.03284 -1.42241,-0.01837 -2.1333,0.0024 z M 99.08079,215.20176 c 6.32681,3.41723 8.61035,5.00199 15.06483,8.17553 -1.58313,-4.50735 -0.44444,-9.88847 -0.30218,-14.53843 -5.53635,-2.24369 -6.75922,-3.06595 -11.98631,-5.93995 -7.266517,-3.90653 -11.235425,-6.65719 -18.610899,-10.35831 -0.02005,4.56419 -0.0098,13.89709 -0.0098,13.89709 0,0 15.498048,8.57494 15.844359,8.76407 z m 49.55983,-12.59824 c -5.69366,3.16245 -11.18848,6.67906 -16.46202,10.49982 -1.80354,1.24479 -4.26851,1.36546 -6.16398,0.25041 -1.23946,-0.81222 -2.79006,-0.73394 -4.16837,-1.16493 l -2.97516,-0.67515 c 0.032,2.0966 0.19016,4.19183 0.20072,6.28616 -0.0946,1.62586 0.52781,3.16558 0.75833,4.75391 0.40037,1.99778 2.41488,3.12393 4.30615,3.33599 1.18142,0.16427 2.42395,0.10437 3.4981,-0.447 4.3687,-1.36841 8.74837,-2.76779 12.93005,-4.63972 1.56742,-0.89183 3.21619,-1.66405 4.73244,-2.63113 2.71297,-2.18727 5.24227,-4.87457 6.20191,-8.31278 0.32463,-1.04727 0.54743,-2.12293 0.73168,-3.20285 0.76973,-0.18972 0.51628,-0.9459 0.54883,-1.54375 V 199.5 c -1.37956,1.03451 -2.75912,2.06901 -4.13868,3.10352 z"
         sodipodi:nodetypes="scccccccccccccccccccccccccccccccccccccccccccccssccccccccccccccccccccccc" /><path
         id="path1900"
         style="color:#000000;fill:#ff4500;stroke-width:1.09764;-inkscape-stroke:none"
         d="m 90.687318,137.44627 c -5.561891,-2.51239 -11.079296,-1.39357 -14.765594,2.70069 -2.084522,2.39418 -3.032634,6.24498 -3.548224,10.20392 -0.781926,5.91835 -0.900766,12.17228 -1.052922,18.32987 -4.038896,-0.66944 -7.740836,0.70206 -10.39896,3.69707 -2.726716,2.93985 -4.525345,7.37332 -4.73938,12.70418 -0.146183,3.52017 -0.456719,19.96465 -0.622852,23.3769 -0.09625,4.50601 -0.413151,9.0291 0.675003,13.82909 1.232788,5.64582 5.062892,10.9404 9.187268,13.27448 4.641639,2.68713 9.626979,1.50686 11.670075,-3.09169 1.37346,-2.99233 1.378224,-7.04841 1.577671,-10.85527 0.280091,-8.20629 1.021162,-29.32777 1.252369,-37.91763 3.719306,1.75896 7.418363,3.77193 11.112304,5.1891 3.063666,1.17615 6.116725,1.14272 8.592881,-0.29978 2.032513,-1.199 4.035213,-2.58949 5.520573,-4.78398 2.03545,-3.17724 2.87691,-7.75689 3.08599,-12.49518 0.21716,-5.07208 -0.69381,-10.75477 -2.83058,-15.9787 -2.37702,-5.92636 -5.869108,-11.57084 -10.132583,-14.98678 -1.486121,-1.22055 -3.03099,-2.18926 -4.583039,-2.8964 z m 0.668135,12.52764 c 11.112537,5.41061 10.543707,28.00592 0.268881,27.02354 -3.286171,-1.06834 -6.367538,-2.56222 -9.470099,-4.04517 -0.611915,-0.30639 -1.224629,-0.60545 -1.837689,-0.90762 -0.435915,-17.76347 1.460693,-26.41449 11.038909,-22.07078 z m -20.40931,33.57045 c -0.160596,8.20149 -0.723016,29.00674 -1.043163,36.80081 -0.15855,1.62776 -0.03762,3.55077 -0.810954,4.70972 -0.887792,0.77271 -2.423009,0.60107 -3.505466,-0.8026 -0.803866,-0.79695 -1.178102,-2.04276 -1.222043,-3.13424 -0.292313,-4.12401 0.08102,-8.01357 0.140988,-12.04459 0.123381,-2.90321 0.416083,-18.84013 0.937846,-21.60417 0.607553,-2.46486 1.945639,-4.2925 3.543508,-5.5115 0.606335,-0.42579 1.27777,-0.72835 2.003298,-0.86124 -0.01466,0.8169 -0.02936,1.63282 -0.04402,2.44781 z"
         sodipodi:nodetypes="ccccccccccccccccccccccccccccssccccccc"
         inkscape:path-effect="#path-effect4571"
         inkscape:original-d="m 85.85028,133.72256 c -7.936838,0.26623 -15.609639,4.25474 -20.602241,10.39116 -2.828603,3.56264 -4.018999,8.07994 -4.602998,12.51212 -0.894546,6.67523 -0.844309,13.42403 -0.844483,20.1449 -5.768018,1.34388 -10.984785,4.72302 -14.68071,9.33714 -3.805013,4.60165 -6.26974,10.38688 -6.466558,16.39133 -0.137723,3.99218 -0.250396,22.71685 -0.421927,26.70981 -0.04825,5.23978 -0.419243,10.64647 1.275895,15.69363 1.940978,6.01033 7.745166,10.32352 13.952069,10.985 7.030852,0.82137 14.45894,-3.17074 17.319457,-9.71265 1.918448,-4.2598 1.73791,-9.046 1.859308,-13.6131 0.03796,-9.6825 0.162977,-34.09278 0.111214,-43.77498 5.472593,0.0259 10.954265,0.34482 16.421576,0.004 4.551488,-0.28285 9.025655,-1.91143 12.565798,-4.81098 2.90294,-2.39509 5.74684,-4.98539 7.7708,-8.19119 2.75328,-4.56782 3.6461,-10.02749 3.6006,-15.29484 -0.058,-5.59607 -1.79015,-11.21543 -5.23745,-15.66111 -3.80802,-5.0221 -9.146463,-9.12323 -15.394184,-10.47285 -2.169097,-0.49918 -4.401903,-0.70582 -6.626172,-0.6375 z m 1.615722,12.74154 c 16.193558,-0.0438 16.883788,24.6157 1.886828,28.88913 -4.814361,0.53528 -9.338718,0.49827 -13.875801,0.48425 -0.893446,-0.0179 -1.78702,-0.0274 -2.680552,-0.0401 -1.399844,-18.86243 0.901424,-28.96086 14.669525,-29.33332 z m -27.676163,46.77556 c 0.06061,9.21314 -0.01026,33.15663 -0.199141,42.36947 -0.175388,1.98448 0.07363,4.17585 -1.030788,5.93604 -1.289003,1.36666 -3.569862,1.95553 -5.217352,0.86247 -1.213048,-0.52194 -1.803728,-1.78968 -1.90168,-3.04419 -0.554254,-4.65675 -0.122778,-9.35569 -0.155931,-14.03056 0.09319,-3.39123 0.0434,-21.56205 0.712695,-24.91291 0.799233,-3.05068 2.664806,-5.76139 4.92015,-7.92841 0.856562,-0.78122 1.810675,-1.45973 2.848464,-1.97886 0.0079,0.90898 0.01572,1.81797 0.02358,2.72695 z" /><path
         id="path2746"
         style="color:#000000;fill:#f0ece3;fill-opacity:1;stroke-linecap:round;stroke-linejoin:round;-inkscape-stroke:none"
         d="m 166.92387,77.061352 c -3.20567,0.04206 -5.67137,0.620659 -8.70317,1.630054 -4.9751,1.698765 -9.43587,5.036195 -12.14262,9.58081 -3.52005,5.790454 -4.44134,12.688324 -4.80049,19.334124 -0.2765,6.17573 -0.14559,12.36031 -0.25876,18.53975 -0.0108,4.96256 0.0553,9.92483 0.0984,14.88711 -4.43903,2.17449 -8.77375,4.65161 -12.60377,7.79565 -5.16581,4.33045 -8.61352,10.7301 -9.1026,17.48096 -0.40452,5.60989 -0.21811,11.2408 -0.30424,16.86046 -0.0503,12.44637 -0.15402,24.89374 -0.17103,37.3395 0.15834,2.99664 2.89876,5.53709 5.89843,5.47265 3.12084,0.10089 6.29353,-0.38151 9.109,-1.78219 3.91639,-1.86973 7.89822,-3.67362 11.51315,-6.09463 3.35662,-2.28666 5.91338,-5.77384 6.82163,-9.75664 1.38633,-5.62264 0.74477,-11.45728 0.79473,-17.18255 -3.5e-4,-10.41899 0.068,-20.83805 -0.0169,-31.25698 -0.0182,-3.88974 -0.0286,-7.77953 -0.0595,-11.6692 6.35884,-3.33024 12.79872,-6.57712 19.23243,-9.80859 2.64734,-1.49486 3.68486,-5.15623 2.21679,-7.81836 -1.35305,-2.75199 -5.0024,-3.98744 -7.74804,-2.62109 -4.62508,2.27895 -9.20789,4.64218 -13.78907,7.00781 -0.0543,-5.86354 -0.11802,-11.79603 0.1201,-17.59075 0.1569,-3.96135 0.40764,-7.81565 0.94334,-11.76743 0.50503,-3.56057 1.02357,-7.309656 3.20914,-10.290412 2.46859,-3.575939 7.33353,-5.688558 11.5905,-5.706146 8.63816,0.156386 12.20193,2.452841 18.25707,5.736209 4.66428,2.529183 8.47449,1.033664 9.42827,-0.02014 0.88949,-0.982766 2.61978,-5.155154 -1.22842,-8.229787 -8.43868,-6.742333 -19.47713,-10.770779 -28.30437,-10.070197 z m -25.70512,81.069508 c 0.0693,10.41388 0.0466,20.82786 0.0201,31.24179 -0.0472,5.09467 0.22961,10.21294 -0.32789,15.28793 -0.0999,1.47633 -0.81846,2.90898 -2.10836,3.68944 -1.98232,1.2926 -4.11494,2.33749 -6.22842,3.39607 -0.50247,0.24566 -1.20555,0.58269 -1.78711,0.85547 0.0902,-13.79897 0.10184,-27.59877 0.2477,-41.39719 0.0737,-3.12628 0.0932,-6.43498 1.7356,-9.21288 1.33805,-2.46361 3.39846,-4.45833 5.76552,-5.93293 0.87254,-0.57813 1.76341,-1.12842 2.66719,-1.65622 0.005,1.24284 0.0104,2.48568 0.0156,3.72852 z"
         sodipodi:nodetypes="sccccccccccccccccccccccccssscscccccccccssc" /></g></g></svg>
